# Blender v3.0.0 OBJ File: 'Decoration_Light.blend'
# www.blender.org
mtllib Decoration_Light.mtl
o Decoration_Light_Cylinder.016
v -0.447161 0.021119 0.329966
v -0.327917 1.318754 0.329966
v -0.447161 0.021119 0.208420
v -0.327917 1.318754 0.208420
v -0.195642 0.021119 0.329966
v -0.195642 1.318754 0.329966
v -0.195642 0.021119 0.208420
v -0.195642 1.318754 0.208420
v -0.195642 0.456719 0.208420
v -0.195642 0.174074 0.208420
v -0.195642 0.386058 0.208420
v -0.195642 0.315397 0.208420
v -0.195642 0.244736 0.208420
v -0.327917 0.456719 0.329966
v -0.384255 0.174074 0.329966
v -0.332205 0.390549 0.329966
v -0.344418 0.313599 0.329966
v -0.362695 0.237583 0.329966
v -0.195642 0.174074 0.329966
v -0.195642 0.456719 0.329966
v -0.195642 0.244736 0.329966
v -0.195642 0.315397 0.329966
v -0.195642 0.386058 0.329966
v -0.384255 0.174074 0.208420
v -0.327917 0.456719 0.208420
v -0.362695 0.237583 0.208420
v -0.344418 0.313599 0.208420
v -0.332205 0.390549 0.208420
v 0.447161 0.021119 0.329966
v 0.327917 1.318754 0.329966
v 0.447161 0.021119 0.208420
v 0.327917 1.318754 0.208420
v 0.195642 0.021119 0.329966
v 0.195642 1.318754 0.329966
v 0.195642 0.021119 0.208420
v 0.195642 1.318754 0.208420
v 0.195642 0.456719 0.208420
v 0.195642 0.174074 0.208420
v 0.195642 0.386058 0.208420
v 0.195642 0.315397 0.208420
v 0.195642 0.244736 0.208420
v 0.327917 0.456719 0.329966
v 0.384255 0.174074 0.329966
v 0.332205 0.390549 0.329966
v 0.344418 0.313599 0.329966
v 0.362695 0.237583 0.329966
v 0.195642 0.174074 0.329966
v 0.195642 0.456719 0.329966
v 0.195642 0.244736 0.329966
v 0.195642 0.315397 0.329966
v 0.195642 0.386058 0.329966
v 0.384255 0.174074 0.208420
v 0.327917 0.456719 0.208420
v 0.362695 0.237583 0.208420
v 0.344418 0.313599 0.208420
v 0.332205 0.390549 0.208420
v -0.447161 0.021119 -0.329966
v -0.327917 1.318754 -0.329966
v -0.447161 0.021119 -0.208420
v -0.327917 1.318754 -0.208420
v -0.195642 0.021119 -0.329966
v -0.195642 1.318754 -0.329966
v -0.195642 0.021119 -0.208420
v -0.195642 1.318754 -0.208420
v -0.195642 0.456719 -0.208420
v -0.195642 0.174074 -0.208420
v -0.195642 0.386058 -0.208420
v -0.195642 0.315397 -0.208420
v -0.195642 0.244736 -0.208420
v -0.327917 0.456719 -0.329966
v -0.384255 0.174074 -0.329966
v -0.332205 0.390549 -0.329966
v -0.344418 0.313599 -0.329966
v -0.362695 0.237583 -0.329966
v -0.195642 0.174074 -0.329966
v -0.195642 0.456719 -0.329966
v -0.195642 0.244736 -0.329966
v -0.195642 0.315397 -0.329966
v -0.195642 0.386058 -0.329966
v -0.384255 0.174074 -0.208420
v -0.327917 0.456719 -0.208420
v -0.362695 0.237583 -0.208420
v -0.344418 0.313599 -0.208420
v -0.332205 0.390549 -0.208420
v 0.447161 0.021119 -0.329966
v 0.327917 1.318754 -0.329966
v 0.447161 0.021119 -0.208420
v 0.327917 1.318754 -0.208420
v 0.195642 0.021119 -0.329966
v 0.195642 1.318754 -0.329966
v 0.195642 0.021119 -0.208420
v 0.195642 1.318754 -0.208420
v 0.195642 0.456719 -0.208420
v 0.195642 0.174074 -0.208420
v 0.195642 0.386058 -0.208420
v 0.195642 0.315397 -0.208420
v 0.195642 0.244736 -0.208420
v 0.327917 0.456719 -0.329966
v 0.384255 0.174074 -0.329966
v 0.332205 0.390549 -0.329966
v 0.344418 0.313599 -0.329966
v 0.362695 0.237583 -0.329966
v 0.195642 0.174074 -0.329966
v 0.195642 0.456719 -0.329966
v 0.195642 0.244736 -0.329966
v 0.195642 0.315397 -0.329966
v 0.195642 0.386058 -0.329966
v 0.384255 0.174074 -0.208420
v 0.327917 0.456719 -0.208420
v 0.362695 0.237583 -0.208420
v 0.344418 0.313599 -0.208420
v 0.332205 0.390549 -0.208420
v -0.280558 0.346022 0.289096
v -0.280558 0.346022 -0.290768
v 0.283029 0.346022 0.289096
v 0.283029 0.346022 -0.290767
v -0.280558 1.071676 0.289096
v -0.280558 1.071676 -0.290768
v 0.283029 1.071676 -0.290767
v 0.283029 1.071676 0.289096
v -0.236049 1.098947 0.243301
v -0.236049 1.098947 -0.244973
v 0.238520 1.098947 -0.244972
v 0.238519 1.098947 0.243301
v -0.236049 1.027411 0.243301
v -0.236049 1.027411 -0.244973
v 0.238520 1.027411 -0.244972
v 0.238519 1.027411 0.243301
v -0.361243 1.098947 0.372110
v -0.361243 1.098947 -0.373782
v 0.363713 1.098947 -0.373781
v 0.363713 1.098947 0.372110
v -0.361243 1.027411 0.372110
v -0.361243 1.027411 -0.373782
v 0.363713 1.027411 -0.373781
v 0.363713 1.027411 0.372110
v -0.236049 0.402291 0.243301
v -0.236049 0.402291 -0.244973
v 0.238520 0.402291 -0.244972
v 0.238519 0.402291 0.243301
v -0.236049 0.330754 0.243301
v -0.236049 0.330754 -0.244973
v 0.238520 0.330754 -0.244972
v 0.238519 0.330754 0.243301
v -0.361243 0.402291 0.372110
v -0.361243 0.402291 -0.373782
v 0.363713 0.402291 -0.373781
v 0.363713 0.402291 0.372110
v -0.361243 0.330754 0.372110
v -0.361243 0.330754 -0.373782
v 0.363713 0.330754 -0.373781
v 0.363713 0.330754 0.372110
v -0.381664 1.379012 0.393120
v -0.381664 1.379012 -0.394793
v 0.384134 1.379012 -0.394792
v 0.384134 1.379012 0.393121
v -0.426495 1.232888 0.439246
v -0.426495 1.232888 -0.440919
v 0.428966 1.232888 -0.440918
v 0.428965 1.232888 0.439247
v 0.390566 1.305950 -0.401409
v 0.390565 1.305950 0.399739
v -0.388095 1.305950 0.399738
v -0.388095 1.305950 -0.401410
vt 0.036528 0.965511
vt 0.036528 0.965378
vt 0.036548 0.965378
vt 0.036548 0.965511
vt 0.036509 0.965378
vt 0.036509 0.965511
vt 0.036489 0.965511
vt 0.036489 0.965378
vt 0.036419 0.965514
vt 0.036419 0.965378
vt 0.036439 0.965378
vt 0.036439 0.965514
vt 0.036458 0.965514
vt 0.036439 0.965514
vt 0.036439 0.965378
vt 0.035763 0.965244
vt 0.035782 0.965244
vt 0.035782 0.965447
vt 0.035763 0.965447
vt 0.035743 0.965447
vt 0.035723 0.965447
vt 0.035723 0.965244
vt 0.035743 0.965244
vt 0.036049 0.965224
vt 0.036069 0.965224
vt 0.036069 0.965432
vt 0.036049 0.965432
vt 0.035703 0.965244
vt 0.035723 0.965244
vt 0.035723 0.965452
vt 0.035703 0.965452
vt 0.035677 0.965006
vt 0.035642 0.965042
vt 0.035642 0.964834
vt 0.035677 0.964870
vt 0.035915 0.965052
vt 0.035880 0.965016
vt 0.036081 0.965016
vt 0.036047 0.965052
vt 0.035809 0.965006
vt 0.035844 0.965042
vt 0.036081 0.965224
vt 0.036047 0.965188
vt 0.035809 0.964870
vt 0.035844 0.964834
vt 0.035880 0.965224
vt 0.035915 0.965188
vt 0.036081 0.965512
vt 0.036081 0.965380
vt 0.036101 0.965380
vt 0.036101 0.965512
vt 0.036509 0.965511
vt 0.036509 0.965378
vt 0.036528 0.965378
vt 0.036528 0.965511
vt 0.036399 0.965514
vt 0.036399 0.965378
vt 0.036419 0.965378
vt 0.036419 0.965514
vt 0.036469 0.965514
vt 0.036469 0.965378
vt 0.036489 0.965378
vt 0.036489 0.965514
vt 0.035763 0.965447
vt 0.035743 0.965447
vt 0.035743 0.965244
vt 0.035763 0.965244
vt 0.036609 0.965377
vt 0.036628 0.965377
vt 0.036628 0.965579
vt 0.036609 0.965579
vt 0.035683 0.965244
vt 0.035703 0.965244
vt 0.035703 0.965452
vt 0.035683 0.965452
vt 0.035844 0.964834
vt 0.035864 0.964834
vt 0.035864 0.965042
vt 0.035844 0.965042
vt 0.035915 0.964980
vt 0.035880 0.965016
vt 0.035880 0.964808
vt 0.035915 0.964844
vt 0.036116 0.964844
vt 0.036081 0.964808
vt 0.036283 0.964808
vt 0.036248 0.964844
vt 0.036047 0.964980
vt 0.036081 0.965016
vt 0.036283 0.965016
vt 0.036248 0.964980
vt 0.036047 0.964844
vt 0.036081 0.964808
vt 0.036081 0.965016
vt 0.036116 0.964980
vt 0.035981 0.965464
vt 0.035948 0.965464
vt 0.035948 0.965224
vt 0.035981 0.965224
vt 0.036550 0.964950
vt 0.036568 0.964907
vt 0.036620 0.964907
vt 0.036620 0.964950
vt 0.036513 0.964710
vt 0.036550 0.964710
vt 0.036550 0.964950
vt 0.036513 0.964950
vt 0.036169 0.965380
vt 0.036169 0.965450
vt 0.036135 0.965450
vt 0.036135 0.965380
vt 0.035833 0.965441
vt 0.035833 0.965404
vt 0.035867 0.965404
vt 0.035867 0.965441
vt 0.035948 0.965585
vt 0.035948 0.965542
vt 0.035981 0.965542
vt 0.035981 0.965585
vt 0.035914 0.965348
vt 0.035948 0.965348
vt 0.035948 0.965588
vt 0.035914 0.965588
vt 0.035948 0.965224
vt 0.035948 0.965268
vt 0.035914 0.965268
vt 0.035914 0.965224
vt 0.036550 0.964588
vt 0.036550 0.964631
vt 0.036498 0.964631
vt 0.036480 0.964588
vt 0.036620 0.964829
vt 0.036583 0.964829
vt 0.036583 0.964588
vt 0.036620 0.964588
vt 0.036620 0.964848
vt 0.036582 0.964847
vt 0.036620 0.964868
vt 0.036579 0.964868
vt 0.036620 0.964888
vt 0.036574 0.964890
vt 0.036550 0.964650
vt 0.036504 0.964648
vt 0.036550 0.964670
vt 0.036509 0.964670
vt 0.036550 0.964690
vt 0.036512 0.964691
vt 0.035914 0.965330
vt 0.035948 0.965330
vt 0.035914 0.965308
vt 0.035948 0.965308
vt 0.035914 0.965287
vt 0.035948 0.965287
vt 0.035948 0.965523
vt 0.035981 0.965523
vt 0.035948 0.965503
vt 0.035981 0.965503
vt 0.035948 0.965483
vt 0.035981 0.965483
vt 0.036049 0.965345
vt 0.036049 0.965585
vt 0.036015 0.965585
vt 0.036015 0.965345
vt 0.036480 0.964950
vt 0.036410 0.964950
vt 0.036410 0.964907
vt 0.036463 0.964907
vt 0.036502 0.965257
vt 0.036502 0.965016
vt 0.036539 0.965016
vt 0.036539 0.965257
vt 0.036203 0.965450
vt 0.036169 0.965450
vt 0.036169 0.965380
vt 0.036203 0.965380
vt 0.035833 0.965441
vt 0.035799 0.965441
vt 0.035799 0.965404
vt 0.035833 0.965404
vt 0.036015 0.965224
vt 0.036049 0.965224
vt 0.036049 0.965267
vt 0.036015 0.965267
vt 0.036380 0.965343
vt 0.036380 0.965582
vt 0.036346 0.965582
vt 0.036346 0.965343
vt 0.036346 0.965219
vt 0.036380 0.965219
vt 0.036380 0.965263
vt 0.036346 0.965263
vt 0.036539 0.965378
vt 0.036469 0.965378
vt 0.036486 0.965336
vt 0.036539 0.965336
vt 0.036410 0.964829
vt 0.036410 0.964588
vt 0.036447 0.964588
vt 0.036447 0.964829
vt 0.036448 0.964847
vt 0.036410 0.964848
vt 0.036452 0.964868
vt 0.036410 0.964868
vt 0.036457 0.964890
vt 0.036410 0.964888
vt 0.036492 0.965318
vt 0.036539 0.965316
vt 0.036497 0.965297
vt 0.036539 0.965296
vt 0.036501 0.965275
vt 0.036539 0.965276
vt 0.036346 0.965324
vt 0.036380 0.965324
vt 0.036346 0.965303
vt 0.036380 0.965303
vt 0.036346 0.965281
vt 0.036380 0.965281
vt 0.036049 0.965286
vt 0.036015 0.965286
vt 0.036049 0.965306
vt 0.036015 0.965306
vt 0.036049 0.965326
vt 0.036015 0.965326
vt 0.036642 0.965137
vt 0.036642 0.965377
vt 0.036609 0.965377
vt 0.036609 0.965137
vt 0.035799 0.965042
vt 0.035869 0.965042
vt 0.035869 0.965084
vt 0.035816 0.965084
vt 0.036276 0.965459
vt 0.036276 0.965219
vt 0.036312 0.965219
vt 0.036312 0.965459
vt 0.036236 0.965450
vt 0.036203 0.965450
vt 0.036203 0.965380
vt 0.036236 0.965380
vt 0.036441 0.965009
vt 0.036407 0.965009
vt 0.036407 0.964972
vt 0.036441 0.964972
vt 0.036609 0.965016
vt 0.036642 0.965016
vt 0.036642 0.965059
vt 0.036609 0.965059
vt 0.036312 0.965458
vt 0.036312 0.965219
vt 0.036346 0.965582
vt 0.036312 0.965582
vt 0.036312 0.965538
vt 0.036346 0.965538
vt 0.036312 0.965581
vt 0.036242 0.965581
vt 0.036312 0.965538
vt 0.035869 0.965163
vt 0.035869 0.965404
vt 0.035832 0.965404
vt 0.035832 0.965163
vt 0.035831 0.965145
vt 0.035869 0.965144
vt 0.035827 0.965123
vt 0.035869 0.965124
vt 0.035822 0.965102
vt 0.035869 0.965104
vt 0.036266 0.965520
vt 0.036312 0.965518
vt 0.036271 0.965499
vt 0.036312 0.965499
vt 0.036274 0.965478
vt 0.036312 0.965479
vt 0.036312 0.965477
vt 0.036312 0.965498
vt 0.036312 0.965520
vt 0.036642 0.965078
vt 0.036609 0.965078
vt 0.036642 0.965098
vt 0.036609 0.965098
vt 0.036642 0.965118
vt 0.036609 0.965118
vt 0.036015 0.965464
vt 0.035981 0.965464
vt 0.035981 0.965224
vt 0.036015 0.965224
vt 0.036469 0.965016
vt 0.036451 0.965059
vt 0.036399 0.965059
vt 0.036399 0.965016
vt 0.036576 0.965257
vt 0.036539 0.965257
vt 0.036539 0.965016
vt 0.036576 0.965016
vt 0.036135 0.965380
vt 0.036135 0.965450
vt 0.036101 0.965450
vt 0.036101 0.965380
vt 0.036441 0.965009
vt 0.036441 0.964972
vt 0.036474 0.964972
vt 0.035981 0.965585
vt 0.035981 0.965542
vt 0.036015 0.965542
vt 0.036015 0.965585
vt 0.035880 0.965348
vt 0.035914 0.965348
vt 0.035914 0.965588
vt 0.035880 0.965588
vt 0.035914 0.965224
vt 0.035914 0.965268
vt 0.035880 0.965268
vt 0.035880 0.965224
vt 0.036539 0.965378
vt 0.036539 0.965336
vt 0.036591 0.965336
vt 0.036609 0.965378
vt 0.036399 0.965138
vt 0.036436 0.965138
vt 0.036436 0.965378
vt 0.036399 0.965378
vt 0.036399 0.965118
vt 0.036437 0.965119
vt 0.036399 0.965098
vt 0.036440 0.965098
vt 0.036399 0.965078
vt 0.036445 0.965077
vt 0.036539 0.965316
vt 0.036585 0.965318
vt 0.036539 0.965296
vt 0.036580 0.965297
vt 0.036539 0.965276
vt 0.036577 0.965275
vt 0.035880 0.965330
vt 0.035914 0.965330
vt 0.035880 0.965308
vt 0.035914 0.965308
vt 0.035880 0.965287
vt 0.035914 0.965287
vt 0.035981 0.965523
vt 0.036015 0.965523
vt 0.035981 0.965503
vt 0.036015 0.965503
vt 0.035981 0.965483
vt 0.036015 0.965483
vt 0.036093 0.964808
vt 0.035880 0.964808
vt 0.035880 0.964588
vt 0.036093 0.964588
vt 0.035880 0.964588
vt 0.035880 0.964834
vt 0.035642 0.964834
vt 0.035642 0.964588
vt 0.036345 0.964781
vt 0.036366 0.964770
vt 0.036366 0.965016
vt 0.036345 0.965005
vt 0.036303 0.964781
vt 0.036324 0.964770
vt 0.036324 0.965016
vt 0.036303 0.965005
vt 0.036386 0.964781
vt 0.036407 0.964770
vt 0.036407 0.965009
vt 0.036386 0.964998
vt 0.035663 0.965255
vt 0.035683 0.965244
vt 0.035683 0.965483
vt 0.035663 0.965472
vt 0.035642 0.965257
vt 0.035642 0.965471
vt 0.036366 0.964783
vt 0.036366 0.964997
vt 0.036283 0.964783
vt 0.036283 0.965003
vt 0.036324 0.964783
vt 0.036324 0.965003
vt 0.036410 0.964588
vt 0.036410 0.964750
vt 0.036254 0.964750
vt 0.036254 0.964588
vt 0.036238 0.965380
vt 0.036081 0.965380
vt 0.036081 0.965218
vt 0.036238 0.965218
vt 0.036399 0.965219
vt 0.036242 0.965219
vt 0.036242 0.965016
vt 0.036399 0.965016
vt 0.035799 0.965244
vt 0.035642 0.965244
vt 0.035642 0.965042
vt 0.035799 0.965042
vt 0.036081 0.965016
vt 0.036242 0.965016
vt 0.036242 0.965218
vt 0.036081 0.965218
vt 0.036093 0.964588
vt 0.036254 0.964588
vt 0.036254 0.964790
vt 0.036093 0.964790
vn 0.0000 0.0000 -1.0000
vn -0.0000 0.0000 1.0000
vn 1.0000 0.0000 0.0000
vn -1.0000 0.0000 -0.0000
vn 0.0000 1.0000 0.0000
vn 0.0000 -1.0000 -0.0000
vn -0.9995 0.0324 0.0000
vn -0.9248 0.3804 0.0000
vn -0.9363 0.3511 0.0000
vn -0.9938 0.1108 0.0000
vn -0.9807 0.1954 0.0000
vn -0.9606 0.2779 0.0000
vn 0.9995 0.0324 0.0000
vn 0.9248 0.3804 0.0000
vn 0.9363 0.3511 0.0000
vn 0.9938 0.1108 0.0000
vn 0.9807 0.1954 0.0000
vn 0.9606 0.2779 0.0000
vn 0.9503 0.3114 0.0000
vn 0.8852 0.4652 0.0000
vn -0.9503 0.3114 0.0000
vn -0.8852 0.4652 0.0000
vn -0.0000 0.3181 0.9481
vn -0.0000 0.4757 0.8796
vn 0.0000 0.3181 -0.9481
vn 0.0000 0.4757 -0.8796
vn 0.0000 0.0902 -0.9959
vn -0.0000 0.0902 0.9959
vn -0.9961 0.0877 0.0000
vn 0.9961 0.0877 0.0000
usemtl Atlas
s off
f 121/1/1 124/2/1 128/3/1 125/4/1
f 123/5/2 122/6/2 126/7/2 127/8/2
f 122/9/3 121/10/3 125/11/3 126/12/3
f 124/2/4 123/13/4 127/14/4 128/15/4
f 129/16/2 133/17/2 136/18/2 132/19/2
f 131/20/1 135/21/1 134/22/1 130/23/1
f 130/24/4 134/25/4 133/26/4 129/27/4
f 132/28/3 136/29/3 135/30/3 131/31/3
f 124/32/5 132/33/5 131/34/5 123/35/5
f 126/36/6 134/37/6 135/38/6 127/39/6
f 121/40/5 129/41/5 132/33/5 124/32/5
f 127/39/6 135/38/6 136/42/6 128/43/6
f 122/44/5 130/45/5 129/41/5 121/40/5
f 128/43/6 136/42/6 133/46/6 125/47/6
f 125/47/6 133/46/6 134/37/6 126/36/6
f 123/35/5 131/34/5 130/45/5 122/44/5
f 137/48/1 140/49/1 144/50/1 141/51/1
f 139/52/2 138/53/2 142/54/2 143/55/2
f 138/56/3 137/57/3 141/58/3 142/59/3
f 140/60/4 139/61/4 143/62/4 144/63/4
f 145/64/2 149/65/2 152/66/2 148/67/2
f 147/68/1 151/69/1 150/70/1 146/71/1
f 146/72/4 150/73/4 149/74/4 145/75/4
f 148/76/3 152/77/3 151/78/3 147/79/3
f 140/80/5 148/81/5 147/82/5 139/83/5
f 142/84/6 150/85/6 151/86/6 143/87/6
f 137/88/5 145/89/5 148/81/5 140/80/5
f 143/87/6 151/86/6 152/90/6 144/91/6
f 138/92/5 146/93/5 145/89/5 137/88/5
f 144/91/6 152/90/6 149/94/6 141/95/6
f 141/95/6 149/94/6 150/85/6 142/84/6
f 139/83/5 147/82/5 146/93/5 138/92/5
s 1
f 20/96/3 9/97/3 8/98/3 6/99/3
f 3/100/1 24/101/1 10/102/1 7/103/1
f 14/104/2 20/105/2 6/106/2 2/107/2
f 3/108/6 7/109/6 5/110/6 1/111/6
f 8/112/5 4/113/5 2/114/5 6/115/5
f 7/116/3 10/117/3 19/118/3 5/119/3
f 25/120/7 14/121/7 2/122/4 4/123/4
f 1/124/8 15/125/9 24/126/9 3/127/8
f 5/128/2 19/129/2 15/130/2 1/131/2
f 9/132/1 25/133/1 4/134/1 8/135/1
f 25/133/1 9/132/1 11/136/1 28/137/1
f 28/137/1 11/136/1 12/138/1 27/139/1
f 27/139/1 12/138/1 13/140/1 26/141/1
f 26/141/1 13/140/1 10/102/1 24/101/1
f 15/130/2 19/129/2 21/142/2 18/143/2
f 18/143/2 21/142/2 22/144/2 17/145/2
f 17/145/2 22/144/2 23/146/2 16/147/2
f 16/147/2 23/146/2 20/105/2 14/104/2
f 14/121/7 25/120/7 28/148/10 16/149/10
f 16/149/10 28/148/10 27/150/11 17/151/11
f 17/151/11 27/150/11 26/152/12 18/153/12
f 18/153/12 26/152/12 24/126/9 15/125/9
f 19/118/3 10/117/3 13/154/3 21/155/3
f 21/155/3 13/154/3 12/156/3 22/157/3
f 22/157/3 12/156/3 11/158/3 23/159/3
f 23/159/3 11/158/3 9/97/3 20/96/3
f 48/160/4 34/161/4 36/162/4 37/163/4
f 31/164/1 35/165/1 38/166/1 52/167/1
f 42/168/2 30/169/2 34/170/2 48/171/2
f 31/172/6 29/173/6 33/174/6 35/175/6
f 36/176/5 34/177/5 30/178/5 32/179/5
f 35/180/4 33/181/4 47/182/4 38/183/4
f 53/184/13 32/185/3 30/186/3 42/187/13
f 29/188/14 31/189/14 52/190/15 43/191/15
f 33/192/2 29/193/2 43/194/2 47/195/2
f 37/196/1 36/197/1 32/198/1 53/199/1
f 53/199/1 56/200/1 39/201/1 37/196/1
f 56/200/1 55/202/1 40/203/1 39/201/1
f 55/202/1 54/204/1 41/205/1 40/203/1
f 54/204/1 52/167/1 38/166/1 41/205/1
f 43/194/2 46/206/2 49/207/2 47/195/2
f 46/206/2 45/208/2 50/209/2 49/207/2
f 45/208/2 44/210/2 51/211/2 50/209/2
f 44/210/2 42/168/2 48/171/2 51/211/2
f 42/187/13 44/212/16 56/213/16 53/184/13
f 44/212/16 45/214/17 55/215/17 56/213/16
f 45/214/17 46/216/18 54/217/18 55/215/17
f 46/216/18 43/191/15 52/190/15 54/217/18
f 47/182/4 49/218/4 41/219/4 38/183/4
f 49/218/4 50/220/4 40/221/4 41/219/4
f 50/220/4 51/222/4 39/223/4 40/221/4
f 51/222/4 48/160/4 37/163/4 39/223/4
f 76/224/3 62/225/3 64/226/3 65/227/3
f 59/228/2 63/229/2 66/230/2 80/231/2
f 70/232/1 58/233/1 62/234/1 76/235/1
f 59/236/6 57/237/6 61/238/6 63/239/6
f 64/240/5 62/241/5 58/242/5 60/243/5
f 63/244/3 61/245/3 75/246/3 66/247/3
f 81/248/7 60/249/4 58/233/4 70/232/7
f 57/250/8 59/251/8 80/252/9 71/253/9
f 61/254/1 57/255/1 71/253/1 75/256/1
f 65/257/2 64/258/2 60/259/2 81/260/2
f 81/260/2 84/261/2 67/262/2 65/257/2
f 84/261/2 83/263/2 68/264/2 67/262/2
f 83/263/2 82/265/2 69/266/2 68/264/2
f 82/265/2 80/231/2 66/230/2 69/266/2
f 71/253/1 74/267/1 77/268/1 75/256/1
f 74/267/1 73/269/1 78/270/1 77/268/1
f 73/269/1 72/271/1 79/272/1 78/270/1
f 72/271/1 70/232/1 76/235/1 79/272/1
f 70/232/7 72/271/10 84/273/10 81/248/7
f 72/271/10 73/269/11 83/274/11 84/273/10
f 73/269/11 74/267/12 82/275/12 83/274/11
f 74/267/12 71/253/9 80/252/9 82/275/12
f 75/246/3 77/276/3 69/277/3 66/247/3
f 77/276/3 78/278/3 68/279/3 69/277/3
f 78/278/3 79/280/3 67/281/3 68/279/3
f 79/280/3 76/224/3 65/227/3 67/281/3
f 104/282/4 93/283/4 92/284/4 90/285/4
f 87/286/2 108/287/2 94/288/2 91/289/2
f 98/290/1 104/291/1 90/292/1 86/293/1
f 87/294/6 91/295/6 89/296/6 85/297/6
f 92/298/5 88/299/5 86/300/5 90/292/5
f 91/301/4 94/302/4 103/303/4 89/304/4
f 109/305/13 98/306/13 86/307/3 88/308/3
f 85/309/14 99/310/15 108/311/15 87/312/14
f 89/313/1 103/314/1 99/315/1 85/316/1
f 93/317/2 109/318/2 88/319/2 92/320/2
f 109/318/2 93/317/2 95/321/2 112/322/2
f 112/322/2 95/321/2 96/323/2 111/324/2
f 111/324/2 96/323/2 97/325/2 110/326/2
f 110/326/2 97/325/2 94/288/2 108/287/2
f 99/315/1 103/314/1 105/327/1 102/328/1
f 102/328/1 105/327/1 106/329/1 101/330/1
f 101/330/1 106/329/1 107/331/1 100/332/1
f 100/332/1 107/331/1 104/291/1 98/290/1
f 98/306/13 109/305/13 112/333/16 100/334/16
f 100/334/16 112/333/16 111/335/17 101/336/17
f 101/336/17 111/335/17 110/337/18 102/338/18
f 102/338/18 110/337/18 108/311/15 99/310/15
f 103/303/4 94/302/4 97/339/4 105/340/4
f 105/340/4 97/339/4 96/341/4 106/342/4
f 106/342/4 96/341/4 95/343/4 107/344/4
f 107/344/4 95/343/4 93/283/4 104/282/4
f 155/345/5 154/346/5 153/347/5 156/348/5
f 159/349/6 160/350/6 157/351/6 158/352/6
f 162/353/19 160/354/20 159/355/20 161/356/19
f 164/357/21 158/358/22 157/359/22 163/360/21
f 163/361/23 157/362/24 160/363/24 162/364/23
f 161/365/25 159/366/26 158/367/26 164/368/25
f 155/369/27 161/365/25 164/368/25 154/370/27
f 153/371/28 163/361/23 162/364/23 156/372/28
f 154/373/29 164/357/21 163/360/21 153/374/29
f 156/375/30 162/353/19 161/356/19 155/376/30
usemtl Light
f 116/377/6 115/378/6 113/379/6 114/380/6
f 119/381/5 118/382/5 117/383/5 120/384/5
f 113/385/2 115/386/2 120/387/2 117/388/2
f 116/389/1 114/390/1 118/391/1 119/392/1
f 115/393/3 116/394/3 119/395/3 120/396/3
f 114/397/4 113/398/4 117/399/4 118/400/4
