# Blender v3.0.0 OBJ File: 'Decoration_Carpet.blend'
# www.blender.org
mtllib Decoration_Carpet.mtl
o Decoration_Carpet_Plane.001
v -1.238726 0.009320 2.000000
v 1.238726 0.009320 2.000000
v -1.238726 0.009320 -2.000000
v 1.238726 0.009320 -2.000000
v -1.238726 0.119873 -2.000000
v -1.238726 0.119873 2.000000
v 1.238726 0.119873 2.000000
v 1.238726 0.119873 -2.000000
v 1.238726 0.009320 -1.116307
v 1.238726 0.119873 -1.116307
v -1.238726 0.009320 -0.822194
v -1.238726 0.119873 -0.822194
v -1.238726 0.009320 -0.308908
v -1.238726 0.119873 -0.308908
v 1.238726 0.009320 -0.603022
v 1.238726 0.119873 -0.603022
v -1.238726 0.085797 -0.659153
v -1.238726 0.058869 -0.433683
v -1.238726 0.109242 -0.586917
v -1.238726 0.099386 -0.504389
v 1.238726 0.058869 -0.727796
v 1.238726 0.085797 -0.953267
v 1.238726 0.099386 -0.798502
v 1.238726 0.109242 -0.881031
v -1.238726 0.169422 -0.433683
v -1.238726 0.196350 -0.659153
v -1.238726 0.209939 -0.504389
v -1.238726 0.219795 -0.586917
v 1.238726 0.196350 -0.953267
v 1.238726 0.169422 -0.727796
v 1.238726 0.219795 -0.881031
v 1.238726 0.209939 -0.798502
v 1.238726 0.009320 1.118473
v 1.238726 0.119873 1.118473
v -1.238726 0.009320 0.658122
v -1.238726 0.119873 0.658122
v -1.238726 0.009320 1.171408
v -1.238726 0.119873 1.171408
v 1.238726 0.009320 1.631759
v 1.238726 0.119873 1.631759
v -1.238726 0.085797 0.821163
v -1.238726 0.058869 1.046633
v -1.238726 0.109242 0.893399
v -1.238726 0.099386 0.975927
v 1.238726 0.058869 1.506984
v 1.238726 0.085797 1.281513
v 1.238726 0.099386 1.436278
v 1.238726 0.109242 1.353750
v -1.238726 0.169422 1.046633
v -1.238726 0.196350 0.821163
v -1.238726 0.209939 0.975927
v -1.238726 0.219795 0.893399
v 1.238726 0.196350 1.281513
v 1.238726 0.169422 1.506984
v 1.238726 0.219795 1.353750
v 1.238726 0.209939 1.436278
vt 0.534252 0.965059
vt 0.534104 0.965059
vt 0.534104 0.964559
vt 0.534215 0.964559
vt 0.533751 0.964559
vt 0.533715 0.965059
vt 0.533604 0.965059
vt 0.533604 0.964559
vt 0.533671 0.965059
vt 0.533671 0.965559
vt 0.533657 0.965559
vt 0.533657 0.965059
vt 0.533671 0.965559
vt 0.533671 0.965059
vt 0.533685 0.965059
vt 0.533685 0.965559
vt 0.533604 0.965169
vt 0.533604 0.965059
vt 0.533618 0.965169
vt 0.534316 0.965059
vt 0.534300 0.965059
vt 0.534263 0.964559
vt 0.534279 0.964559
vt 0.533614 0.965190
vt 0.533628 0.965190
vt 0.533651 0.965255
vt 0.533657 0.965270
vt 0.533643 0.965270
vt 0.533637 0.965255
vt 0.533657 0.965059
vt 0.533657 0.965206
vt 0.533643 0.965206
vt 0.533643 0.965059
vt 0.533772 0.964559
vt 0.533735 0.965059
vt 0.533816 0.964559
vt 0.533779 0.965059
vt 0.533763 0.965059
vt 0.533800 0.964559
vt 0.533647 0.965226
vt 0.533634 0.965226
vt 0.533643 0.965391
vt 0.533657 0.965391
vt 0.534437 0.965059
vt 0.534494 0.964559
vt 0.533994 0.965059
vt 0.533937 0.964559
vt 0.533604 0.965233
vt 0.533610 0.965218
vt 0.533624 0.965218
vt 0.533618 0.965233
vt 0.533632 0.965246
vt 0.533646 0.965246
vt 0.533631 0.965235
vt 0.533644 0.965235
vt 0.533631 0.965199
vt 0.533617 0.965199
vt 0.533629 0.965209
vt 0.533616 0.965209
vt 0.533780 0.964559
vt 0.533744 0.965059
vt 0.533791 0.964559
vt 0.533754 0.965059
vt 0.534271 0.965059
vt 0.534235 0.964559
vt 0.534244 0.964559
vt 0.534280 0.965059
vt 0.534254 0.964559
vt 0.534291 0.965059
vt 0.534501 0.965059
vt 0.534485 0.965059
vt 0.534542 0.964559
vt 0.534558 0.964559
vt 0.533614 0.965469
vt 0.533604 0.965449
vt 0.533618 0.965449
vt 0.533628 0.965469
vt 0.533651 0.965440
vt 0.533657 0.965455
vt 0.533643 0.965455
vt 0.533637 0.965440
vt 0.533957 0.964559
vt 0.534014 0.965059
vt 0.534001 0.964559
vt 0.534058 0.965059
vt 0.534042 0.965059
vt 0.533985 0.964559
vt 0.533647 0.965411
vt 0.533634 0.965411
vt 0.533604 0.965513
vt 0.533610 0.965497
vt 0.533624 0.965497
vt 0.533618 0.965513
vt 0.533632 0.965431
vt 0.533646 0.965431
vt 0.533631 0.965420
vt 0.533644 0.965420
vt 0.533631 0.965478
vt 0.533617 0.965478
vt 0.533629 0.965488
vt 0.533616 0.965488
vt 0.533965 0.964559
vt 0.534023 0.965059
vt 0.533976 0.964559
vt 0.534033 0.965059
vt 0.534456 0.965059
vt 0.534514 0.964559
vt 0.534523 0.964559
vt 0.534465 0.965059
vt 0.534533 0.964559
vt 0.534476 0.965059
vt 0.534604 0.964559
vt 0.534604 0.965059
vt 0.534104 0.964559
vt 0.534104 0.965059
vt 0.533618 0.965559
vt 0.533604 0.965559
vt 0.533643 0.965559
vn 0.0277 -0.9721 0.2329
vn 0.0000 -1.0000 0.0000
vn 0.0240 -0.9791 0.2018
vn -0.0277 0.9721 -0.2329
vn -0.0240 0.9791 -0.2018
vn 0.0000 1.0000 0.0000
vn 0.0000 0.0000 -1.0000
vn 0.0000 0.0000 1.0000
vn 1.0000 0.0000 0.0000
vn -0.0207 -0.9845 -0.1741
vn -0.0510 -0.9017 -0.4293
vn -0.0520 -0.8975 -0.4380
vn -0.0239 -0.9792 -0.2014
vn -1.0000 0.0000 0.0000
vn -0.0431 0.9308 -0.3630
vn -0.0441 0.9276 -0.3711
vn 0.0207 0.9845 0.1741
vn 0.0239 0.9792 0.2014
vn 0.0520 0.8975 0.4380
vn 0.0510 0.9017 0.4293
vn -0.0359 -0.9806 0.1929
vn -0.0448 -0.9694 0.2413
vn 0.0448 0.9694 -0.2413
vn 0.0359 0.9806 -0.1929
vn -0.0097 0.9966 -0.0813
vn -0.0134 0.9935 -0.1133
vn 0.0389 0.9441 0.3273
vn 0.0357 0.9532 0.3004
vn 0.0431 -0.9308 0.3630
vn 0.0441 -0.9276 0.3711
vn 0.0134 -0.9935 0.1133
vn 0.0097 -0.9966 0.0813
vn -0.0357 -0.9532 -0.3004
vn -0.0389 -0.9441 -0.3273
vn 0.0388 -0.9772 -0.2087
vn 0.0817 -0.8945 -0.4394
vn 0.0792 -0.9012 -0.4261
vn 0.0309 -0.9856 -0.1664
vn 0.0693 0.9253 -0.3728
vn 0.0669 0.9304 -0.3603
vn -0.0388 0.9772 0.2087
vn -0.0309 0.9856 0.1664
vn -0.0792 0.9012 0.4261
vn -0.0817 0.8945 0.4394
vn 0.0227 0.9923 -0.1220
vn 0.0134 0.9973 -0.0724
vn -0.0543 0.9547 0.2925
vn -0.0621 0.9404 0.3342
vn -0.0693 -0.9253 0.3728
vn -0.0669 -0.9304 0.3603
vn -0.0134 -0.9973 0.0724
vn -0.0227 -0.9923 0.1220
vn 0.0621 -0.9404 -0.3342
vn 0.0543 -0.9547 -0.2925
usemtl Atlas
s 1
f 11/1/1 3/2/2 4/3/2 9/4/3
f 12/5/4 10/6/5 8/7/6 5/8/6
f 4/9/7 3/10/7 5/11/7 8/12/7
f 1/13/8 2/14/8 7/15/8 6/16/8
f 9/17/9 4/18/9 8/7/9 10/19/9
f 13/20/10 18/21/11 21/22/12 15/23/13
f 22/24/9 9/17/9 10/19/9 29/25/9
f 18/26/14 13/27/14 14/28/14 25/29/14
f 3/30/14 11/31/14 12/32/14 5/33/14
f 26/34/15 29/35/16 10/6/5 12/5/4
f 14/36/17 16/37/18 30/38/19 25/39/20
f 11/31/14 17/40/14 26/41/14 12/32/14
f 36/42/14 14/28/14 13/27/14 35/43/14
f 35/44/21 13/20/10 15/23/13 33/45/22
f 34/46/23 16/37/18 14/36/17 36/47/24
f 15/48/9 21/49/9 30/50/9 16/51/9
f 18/26/14 25/29/14 27/52/14 20/53/14
f 20/53/14 27/52/14 28/54/14 19/55/14
f 19/55/14 28/54/14 26/41/14 17/40/14
f 22/24/9 29/25/9 31/56/9 24/57/9
f 24/57/9 31/56/9 32/58/9 23/59/9
f 23/59/9 32/58/9 30/50/9 21/49/9
f 29/35/16 26/34/15 28/60/25 31/61/26
f 31/61/26 28/60/25 27/62/27 32/63/28
f 32/63/28 27/62/27 25/39/20 30/38/19
f 17/64/29 22/65/30 24/66/31 19/67/32
f 19/67/32 24/66/31 23/68/33 20/69/34
f 20/69/34 23/68/33 21/22/12 18/21/11
f 17/64/29 11/1/1 9/4/3 22/65/30
f 37/70/35 42/71/36 45/72/37 39/73/38
f 46/74/9 33/75/9 34/76/9 53/77/9
f 42/78/14 37/79/14 38/80/14 49/81/14
f 50/82/39 53/83/40 34/46/23 36/47/24
f 38/84/41 40/85/42 54/86/43 49/87/44
f 35/43/14 41/88/14 50/89/14 36/42/14
f 39/90/9 45/91/9 54/92/9 40/93/9
f 42/78/14 49/81/14 51/94/14 44/95/14
f 44/95/14 51/94/14 52/96/14 43/97/14
f 43/97/14 52/96/14 50/89/14 41/88/14
f 46/74/9 53/77/9 55/98/9 48/99/9
f 48/99/9 55/98/9 56/100/9 47/101/9
f 47/101/9 56/100/9 54/92/9 45/91/9
f 53/83/40 50/82/39 52/102/45 55/103/46
f 55/103/46 52/102/45 51/104/47 56/105/48
f 56/105/48 51/104/47 49/87/44 54/86/43
f 41/106/49 46/107/50 48/108/51 43/109/52
f 43/109/52 48/108/51 47/110/53 44/111/54
f 44/111/54 47/110/53 45/72/37 42/71/36
f 41/106/49 35/44/21 33/45/22 46/107/50
f 39/73/38 2/112/2 1/113/2 37/70/35
f 38/84/41 6/114/6 7/115/6 40/85/42
f 40/93/9 7/116/9 2/117/9 39/90/9
f 37/79/14 1/13/14 6/118/14 38/80/14
f 33/75/9 15/48/9 16/51/9 34/76/9
